<?xml version="1.0" encoding="UTF-8"?>
<svg xmlns="http://www.w3.org/2000/svg" xmlns:xlink="http://www.w3.org/1999/xlink" width="30px" height="30px" viewBox="0 0 30 30" version="1.1">
<g id="surface1">
<path style=" stroke:none;fill-rule:nonzero;fill:rgb(15.686275%,56.862745%,97.647059%);fill-opacity:1;" d="M 5 9.230469 L 15 15.003906 L 15 18.851562 L 8.332031 15.003906 L 8.332031 22.699219 L 5 20.773438 Z M 5 9.230469 "/>
<path style=" stroke:none;fill-rule:nonzero;fill:rgb(16.862745%,74.117647%,96.862745%);fill-opacity:1;" d="M 8.332031 22.699219 L 8.332031 15.003906 L 11.667969 16.925781 L 11.667969 20.773438 Z M 8.332031 22.699219 "/>
<path style=" stroke:none;fill-rule:nonzero;fill:rgb(16.862745%,42.745098%,93.72549%);fill-opacity:1;" d="M 5 9.230469 L 8.332031 7.308594 L 18.332031 13.078125 L 15 15.003906 Z M 5 9.230469 "/>
<path style=" stroke:none;fill-rule:nonzero;fill:rgb(16.862745%,74.117647%,96.862745%);fill-opacity:1;" d="M 15 15.003906 L 18.332031 13.078125 L 18.332031 16.925781 L 15 18.851562 Z M 15 15.003906 "/>
<path style=" stroke:none;fill-rule:nonzero;fill:rgb(15.686275%,56.862745%,97.647059%);fill-opacity:1;" d="M 18.332031 9.230469 L 18.332031 20.773438 L 21.667969 22.699219 L 21.667969 11.15625 Z M 18.332031 9.230469 "/>
<path style=" stroke:none;fill-rule:nonzero;fill:rgb(16.862745%,74.117647%,96.862745%);fill-opacity:1;" d="M 25 9.230469 L 21.667969 11.15625 L 21.667969 22.699219 L 25 20.773438 Z M 25 9.230469 "/>
<path style=" stroke:none;fill-rule:nonzero;fill:rgb(16.862745%,42.745098%,93.72549%);fill-opacity:1;" d="M 21.667969 7.308594 L 25 9.230469 L 21.667969 11.15625 L 18.332031 9.230469 Z M 21.667969 7.308594 "/>
</g>
</svg>
